# xmcd
#
# Track frame offsets:
#	150
#	18115
#	42358
#	67838
#	93522
#
# Disc length: 1553 seconds
#
# Revision: 1
# Processed by: cddbd v1.5.2PL0 Copyright (c) Steve Scherf et al.
# Submitted via: audiograbber 1.83.01
#
DISCID=32060f05
DTITLE=Sugar Beat - Sweet Rhythms
DYEAR=2002
DGENRE=Pop
TTITLE0=Babe
TTITLE1=Rhythm In Me
TTITLE2=One Day
TTITLE3=Mississippi Band
TTITLE4=Lonesome Years
EXTD=
EXTT0=
EXTT1=
EXTT2=
EXTT3=
EXTT4=
PLAYORDER=
